<svg id="Capa_1" viewBox="0 0 512 512" xmlns="http://www.w3.org/2000/svg"><g><g><path d="m132.884 373.047c-48.85-37.171-80.384-95.927-80.384-162.047 0-112.39 91.11-203.5 203.5-203.5s203.5 91.11 203.5 203.5c0 66.02-31.439 124.697-80.162 161.877l-122.838 10.085z" fill="#e592d0"/><path d="m414.12 339.12c-10.21 12.58-21.89 23.92-34.78 33.76l-122.84 10.08-123.62-9.91c-48.85-37.17-80.38-95.93-80.38-162.05 0-63.83 29.39-120.8 75.38-158.12-28.37 34.98-45.38 79.56-45.38 128.12 0 61.175 26.99 116.05 69.717 153.354 6.443 5.625 14.541 9.007 23.067 9.69l6.918.555c69.418 5.565 139.173 5.499 208.581-.196l18.557-1.523c1.61-1.23 3.2-2.48 4.78-3.76z" fill="#e172c1"/><path d="m137.5 372.5h238c11.046 0 20 8.954 20 20v46l-137.436 10-140.564-10v-46c0-11.046 8.954-20 20-20z" fill="#365f7e"/><path d="m107.5 438.5h298c11.046 0 20 8.954 20 20v36c0 5.523-4.477 10-10 10h-318c-5.523 0-10-4.477-10-10v-36c0-11.046 8.954-20 20-20z" fill="#365f7e"/><path d="m107.5 494.5v-31c0-2.761 2.239-5 5-5h313c0-11.05-8.95-20-20-20h-278-20c-11.046 0-20 8.954-20 20v36c0 5.523 4.477 10 10 10h20c-5.52 0-10-4.48-10-10z" fill="#2c4d66"/><path d="m310.103 75.118 13.371 22.429c.719 1.206 1.912 2.055 3.288 2.337l25.577 5.257c3.754.772 5.28 5.307 2.755 8.191l-17.2 19.647c-.925 1.057-1.363 2.454-1.207 3.85l2.904 25.95c.426 3.809-3.416 6.662-6.939 5.152l-24.001-10.286c-1.291-.553-2.755-.538-4.034.042l-23.783 10.781c-3.491 1.583-7.391-1.19-7.044-5.007l2.366-26.005c.127-1.399-.34-2.786-1.286-3.824l-17.603-19.287c-2.584-2.831-1.152-7.397 2.585-8.246l25.463-5.785c1.37-.311 2.545-1.184 3.239-2.405l12.904-22.701c1.897-3.333 6.682-3.382 8.645-.09z" fill="#f8e837"/><path d="m291.64 132.23-2.74 32.59-8.06 3.65c-3.49 1.58-7.39-1.19-7.05-5.01l2.37-26c.13-1.4-.34-2.79-1.29-3.83l-17.6-19.28c-2.58-2.84-1.15-7.4 2.59-8.25l8.64-1.96 21.81 24.12c.98 1.08 1.46 2.52 1.33 3.97z" fill="#f3d332"/><path d="m221.743 173.673 9.216 15.46c.496.831 1.318 1.416 2.266 1.611l17.63 3.623c2.588.532 3.639 3.658 1.899 5.646l-11.855 13.542c-.638.728-.94 1.691-.832 2.653l2.002 17.886c.294 2.626-2.354 4.592-4.783 3.551l-16.543-7.09c-.89-.381-1.899-.371-2.781.029l-16.392 7.431c-2.406 1.091-5.094-.82-4.855-3.451l1.631-17.924c.088-.964-.234-1.921-.887-2.636l-12.133-13.294c-1.781-1.951-.794-5.099 1.782-5.684l17.551-3.988c.944-.214 1.754-.816 2.233-1.658l8.894-15.647c1.306-2.295 4.604-2.329 5.957-.06z" fill="#f8e837"/><path d="m210 212.08-1.75 22.91-6.68 3.03c-2.41 1.09-5.09-.82-4.85-3.46l1.63-17.92c.08-.96-.24-1.92-.89-2.64l-12.13-13.29c-1.78-1.95-.8-5.1 1.78-5.68l7.56-1.72 14.36 15.9c.71.78 1.06 1.82.97 2.87z" fill="#f3d332"/><path d="m157.5 372.5c-11.05 0-20 8.95-20 20v46h-20v-46c0-11.05 8.95-20 20-20z" fill="#2c4d66"/></g><g><path d="m444.382 306.14c15.008-29.66 22.618-61.669 22.618-95.14 0-116.346-94.654-211-211-211-44.469 0-87 13.672-122.998 39.538-3.364 2.417-4.131 7.104-1.714 10.468 2.417 3.362 7.103 4.131 10.467 1.714 33.432-24.023 72.936-36.72 114.245-36.72 108.075 0 196 87.925 196 196 0 60.638-27.248 116.603-74.844 154.054-1.897-.159-176.236 0-178.156-.054-4.142 0-7.5 3.357-7.5 7.5s3.358 7.5 7.5 7.5h176.5c6.893 0 12.5 5.607 12.5 12.5v38.5h-63c-4.142 0-7.5 3.357-7.5 7.5s3.358 7.5 7.5 7.5h80.5c6.893 0 12.5 5.607 12.5 12.5v36c0 1.379-1.122 2.5-2.5 2.5h-318c-1.378 0-2.5-1.121-2.5-2.5v-36c0-6.893 5.607-12.5 12.5-12.5h182.5c4.142 0 7.5-3.357 7.5-7.5s-3.358-7.5-7.5-7.5h-165v-38.5c0-6.893 5.607-12.5 12.5-12.5h26.5c4.142 0 7.5-3.357 7.5-7.5s-3.358-7.5-7.5-7.5c-1.22.045-28.733-.12-29.068.124-47.655-37.451-74.932-93.432-74.932-154.124 0-51.652 19.919-100.4 56.089-137.263 2.901-2.957 2.856-7.705-.101-10.606-2.957-2.9-7.704-2.855-10.606.101-38.938 39.684-60.382 92.163-60.382 147.768 0 33.521 7.632 65.575 22.684 95.271 12.628 24.914 30.388 47.376 51.726 65.544-5.761 5.044-9.41 12.445-9.41 20.686v38.499h-2.5c-15.164 0-27.5 12.337-27.5 27.5v36c0 9.649 7.851 17.5 17.5 17.5h318c9.649 0 17.5-7.851 17.5-17.5v-36c0-15.163-12.336-27.5-27.5-27.5h-2.5v-38.5c0-8.475-3.856-16.064-9.902-21.113 21.15-18.122 38.752-40.479 51.284-65.247z"/><path d="m363.18 106.052c-1.435-4.265-4.923-7.351-9.331-8.257l-24.498-5.034-12.806-21.483c-4.493-8.145-17.286-8.007-21.604.225l-12.359 21.742-24.389 5.541c-9.13 1.754-12.958 13.964-6.462 20.616l16.86 18.473-2.267 24.907c-1.165 9.228 9.305 16.639 17.61 12.518l22.779-10.326 22.988 9.853c8.417 3.949 18.691-3.681 17.346-12.88l-2.782-24.854 16.475-18.818c2.963-3.389 3.875-7.958 2.44-12.223zm-30.931 21.991c-2.304 2.635-3.403 6.141-3.015 9.62l2.427 21.684-20.056-8.597c-3.22-1.379-6.896-1.34-10.083.105l-19.872 9.009 1.978-21.73c.316-3.486-.855-6.969-3.216-9.558l-14.708-16.115 21.278-4.834c3.417-.777 6.368-2.97 8.096-6.013l10.782-18.967 11.171 18.738c1.792 3.009 4.788 5.139 8.221 5.846l21.371 4.393z"/><path d="m228.186 169.833c0-.001-.001-.001-.001-.002-3.957-7.125-15.11-6.984-18.918.198l-8.011 14.093-15.807 3.592c-7.983 1.562-11.322 12.213-5.661 18.053l10.928 11.975-1.469 16.143c-.985 8.077 8.131 14.542 15.421 10.963l14.765-6.693 14.899 6.386c7.377 3.427 16.337-3.226 15.191-11.278l-1.803-16.11 10.677-12.196c5.54-5.958 1.981-16.534-6.032-17.934l-15.878-3.263zm7.073 38.779c-2.022 2.308-2.987 5.381-2.645 8.431l1.227 10.966-10.146-4.348c-2.82-1.209-6.041-1.174-8.829.093l-10.05 4.556 1-10.988c.278-3.056-.749-6.108-2.816-8.372l-7.438-8.15 10.764-2.446c2.989-.68 5.573-2.599 7.088-5.265l5.454-9.594 5.651 9.48c1.57 2.633 4.192 4.497 7.198 5.116l10.809 2.221z"/></g></g></svg>